<svg xmlns="http://www.w3.org/2000/svg" viewBox="0 0 410 210" width="410" height="210" direction="ltr" role="img" aria-labelledby="title desc">
<title id="title">GitHub profile stats</title>
<desc id="desc">Total stars, public repositories, and follower information for AyushSinghRana15.</desc>
<style>
    @keyframes f{0%{opacity:0;transform:translateY(4px)}to{opacity:1;transform:translateY(0)}}
    text{font-family:Segoe UI,Ubuntu,sans-serif}
    .a{animation:f .45s ease-out forwards}
    .icon{fill:#C792EA}
    .value{fill:#FFEB95;font-weight:700;font-size:28px}
    .label{fill:#7FDBCA;font-weight:600;font-size:13px}
    .detail{fill:#D6DEEB;font-weight:400;font-size:10.5px}
</style>
<g clip-path="url(#c)">
<rect width="410" height="210" rx="4.5" fill="#011627" stroke="#1D3B53" stroke-width="1"/>
<line x1="136.5" y1="24" x2="136.5" y2="186" stroke="#E4E2E2" stroke-opacity=".12" stroke-width="1" vector-effect="non-scaling-stroke"/>
<line x1="273.5" y1="24" x2="273.5" y2="186" stroke="#E4E2E2" stroke-opacity=".12" stroke-width="1" vector-effect="non-scaling-stroke"/>

<g transform="translate(68 0)" class="a" style="animation-delay:.1s">
<path class="icon" d="M12 2l3.09 6.26L22 9.27l-5 4.87 1.18 6.88L12 17.77l-6.18 3.25L7 14.14 2 9.27l6.91-1.01L12 2z" transform="translate(-12 18)"/>
<text class="value" x="0" y="74" text-anchor="middle">6</text>
<text class="label" x="0" y="102" text-anchor="middle">Total Stars</text>
<text class="detail" x="0" y="128" text-anchor="middle">6 starred repos</text>
<text class="detail" x="0" y="146" text-anchor="middle">Top repo: 1 star</text>
</g>

<g transform="translate(205 0)" class="a" style="animation-delay:.25s">
<path class="icon" d="M6 2h12a2 2 0 012 2v16a2 2 0 01-2 2H6a2 2 0 01-2-2V4a2 2 0 012-2zm0 2v16h12V4H6zm2 2h8v2H8V6zm0 4h8v2H8v-2z" transform="translate(-12 18)"/>
<text class="value" x="0" y="74" text-anchor="middle">28</text>
<text class="label" x="0" y="102" text-anchor="middle">Public Repos</text>
<text class="detail" x="0" y="128" text-anchor="middle">Latest push: Jul 8</text>
<text class="detail" x="0" y="146" text-anchor="middle">Oldest: YoutubeClone</text>
</g>

<g transform="translate(342 0)" class="a" style="animation-delay:.4s">
<path class="icon" d="M16 11c1.66 0 2.99-1.34 2.99-3S17.66 5 16 5s-3 1.34-3 3 1.34 3 3 3zm-8 0c1.66 0 2.99-1.34 2.99-3S9.66 5 8 5 5 6.34 5 8s1.34 3 3 3zm0 2c-2.33 0-7 1.17-7 3.5V19h14v-2.5c0-2.33-4.67-3.5-7-3.5zm8 0c-.29 0-.62.02-.97.05 1.16.84 1.97 1.97 1.97 3.45V19h6v-2.5c0-2.33-4.67-3.5-7-3.5z" transform="translate(-12 18)"/>
<text class="value" x="0" y="74" text-anchor="middle">1</text>
<text class="label" x="0" y="102" text-anchor="middle">Followers</text>
<text class="detail" x="0" y="128" text-anchor="middle">Following: 0</text>
<text class="detail" x="0" y="146" text-anchor="middle">Since Nov 2023</text>
</g>
</g>
<defs><clipPath id="c"><rect width="410" height="210" rx="4.5"/></clipPath></defs>
</svg>
